<?xml version="1.0" encoding="UTF-8"?>
<svg id="Calque_2" data-name="Calque 2" xmlns="http://www.w3.org/2000/svg" viewBox="0 0 90.26 64.93">
  <defs>
    <style>
      .cls-1 {
        fill: #1d1d1b;
        stroke-width: 0px;
      }

      .cls-2 {
        fill: none;
        stroke: #1d1d1b;
        stroke-miterlimit: 10;
      }
    </style>
  </defs>
  <g id="Calque_1-2" data-name="Calque 1">
    <path class="cls-1" d="M43.08,50.98L30.24,8.6c-.19-.64-.61-.87-1.26-.67l-16.19,4.91c-3.17.96-5.38,2.6-6.64,4.91-1.26,2.31-1.4,5.05-.44,8.22l1.15,3.79c1.24,4.09,3.97,6.15,8.19,6.17-1.7.67-2.96,1.89-3.78,3.67-.82,1.78-.88,3.81-.18,6.11l1.4,4.62c.96,3.17,2.62,5.36,4.97,6.58,2.35,1.22,5.11,1.35,8.28.39l16.68-5.05c.64-.19.87-.61.67-1.26ZM30.18,29l-10.61,3.21c-4.04,1.22-6.66-.11-7.84-4.02l-1.11-3.65c-1.18-3.9.18-6.45,4.08-7.63l10.82-3.28c.46-.14.76.02.9.48l4.26,14.06c.13.41-.04.69-.5.83ZM36.36,49.4l-11.3,3.42c-3.95,1.2-6.52-.16-7.7-4.06l-1.36-4.48c-1.18-3.9.34-6.5,4.57-7.78l10.89-3.3c.46-.14.75,0,.88.41l4.51,14.88c.14.46-.02.76-.48.9Z"/>
    <path class="cls-2" d="M89.76,35.83s.43,6.86-20.89,11.09l-38.9,11.69S4.17,68.04.4,62.9"/>
    <path class="cls-1" d="M46.76,49.23L33.61,6.95c-.2-.64.02-1.06.66-1.26L50.44.66c3.16-.98,5.91-.87,8.25.34,2.34,1.21,4,3.39,4.98,6.56l1.18,3.78c1.27,4.08.16,7.31-3.32,9.7,1.78-.4,3.51-.1,5.19.91,1.67,1.01,2.86,2.67,3.58,4.96l1.43,4.61c.98,3.16.84,5.91-.42,8.24-1.26,2.33-3.47,3.98-6.64,4.97l-16.64,5.17c-.64.2-1.06-.02-1.26-.66ZM45.11,23.8l10.59-3.29c4.03-1.25,5.44-3.83,4.23-7.73l-1.13-3.64c-1.21-3.9-3.77-5.24-7.66-4.03l-10.79,3.36c-.46.14-.62.44-.47.9l4.36,14.03c.13.41.42.55.88.4ZM51.44,44.16l11.28-3.51c3.94-1.23,5.31-3.79,4.1-7.68l-1.39-4.47c-1.21-3.9-3.93-5.19-8.14-3.88l-10.86,3.38c-.46.14-.62.42-.5.83l4.62,14.85c.14.46.44.62.9.47Z"/>
  </g>
</svg>